<?xml version="1.0" encoding="utf-8"?>
<svg version="1.1" xmlns:xlink="http://www.w3.org/1999/xlink" width="95px" height="94px" xmlns="http://www.w3.org/2000/svg">
  <g transform="matrix(1 0 0 1 -131 -49 )">
    <path d="M 89.4112386270015 31.388080754907  C 96.4967054033365 24.3397599268627  96.5021872830175 12.905569001937  89.411560997829 5.84905848761944  C 82.3183549056931 -1.20745192276279  70.8266945638962 -1.20479304979662  63.7374656391239 5.84905848761944  C 63.0253502670616 6.55750678108858  62.3858976366381 7.31083787295002  61.8168503117333 8.09884167854145  C 58.0615033839908 6.91944183611506  54.106334231865 6.30501373113055  50.0553923728451 6.30501373113055  C 39.6644205305317 6.30501373113055  29.8954881469525 10.3310759129326  22.5492526776779 17.6405047804752  C 21.1285691681059 19.0539977979888  19.8410646207951 20.5505562228661  18.6866316838439 22.114651704836  C 13.810065888228 20.6914801278086  8.32500430522825 21.8932150436144  4.47839922770854 25.7197503343072  C -1.1300598996804 31.2988467872062  -1.1300598996804 40.3439260231954  4.48108649159835 45.9258941046294  C 6.47554690211777 47.9104213019757  8.91103497405248 49.1879892869641  11.4736827388139 49.760406118156  C 12.4954742082984 58.0263092936628  16.1864350999564 66.0251484170325  22.5491452207354 72.3577888212971  C 29.0331030117672 78.8094433603919  37.4058595265689 82.6997931613023  46.4275276137978 83.524809368269  C 46.9978648421762 85.7409835193698  48.1540176154119 87.8388880242284  49.8980283506989 89.5741129854726  C 55.0799707055462 94.7313950716361  63.4816416461938 94.7313950716361  68.6620790786415 89.5741129854726  C 72.1191437061757 86.1353577184272  73.2690621910511 81.2709846530217  72.1132317886428 76.8828810903764  C 74.0450259993624 75.554899597624  75.871265875234 74.0449401702931  77.5669065957919 72.3577888212971  C 88.1667297767223 61.8109396363798  91.3536743312968 46.6402984107373  87.1321471496078 33.3109205819828  C 87.930683743503 32.7416944607115  88.6937488322007 32.1016342466103  89.4112386270015 31.388080754907  Z M 84.6635519403329 34.790780864734  C 88.2807755209275 47.0102102925329  85.2539898143724 60.7803341998483  75.5819051272759 70.4045307682561  C 74.1741203373176 71.8049418647017  72.669165375008 73.0733630231954  71.0844534120367 74.2079863930462  C 70.4701531640625 73.0192270724916  69.6633399696539 71.903535414466  68.6622938874855 70.9077088096107  C 63.4790617342055 65.7507458048328  55.0787880489331 65.7507458048328  49.8969532560692 70.9050498327092  C 47.1893026939808 73.5990888934982  45.8973911515367 77.1683450173844  46.020143639148 80.6981424146275  C 37.9058984862071 79.8051636394305  30.3905827217039 76.2304833398599  24.5345762018982 70.4046371980081  C 18.8023971592927 64.6990815165289  15.4048815348576 57.5374897067891  14.3410617959469 50.1059622163772  C 18.1131769436419 50.1819016113765  21.9101222079997 48.78861642336  24.7890028344121 45.9261068601982  C 30.3974619618011 40.3467976517304  30.3974619618011 31.3017184157412  24.7890028344121 25.7226219628422  C 23.7518404003503 24.6905274451995  22.5953651512461 23.849982991897  21.3641849533913 23.1994996257586  C 22.3273948473818 21.9456493655088  23.3830453376808 20.7399791472592  24.5346836588407 19.5941882407186  C 31.3517501985005 12.8110169764979  40.4152316412707 9.07573657157154  50.0556070766481 9.07573657157154  C 53.5855493597059 9.07573657157154  57.037347021444 9.57848910178848  60.3308131283897 10.5460246206256  C 56.933834893708 17.3073926484214  58.0669850535899 25.7481477461422  63.7376803429268 31.3882935104758  C 69.4021412388624 37.0235468321442  77.8706704605582 38.1546603067536  84.6635519403329 34.790780864734  Z " fill-rule="nonzero" fill="#1abc9c" stroke="none" transform="matrix(1 0 0 1 131 49 )" />
  </g>
</svg>